<?xml version="1.0" encoding="utf-8"?>
<!-- Generator: Adobe Illustrator 18.1.1, SVG Export Plug-In . SVG Version: 6.00 Build 0)  -->
<svg version="1.2" baseProfile="tiny" id="Lag_1" xmlns="http://www.w3.org/2000/svg" xmlns:xlink="http://www.w3.org/1999/xlink"
	 x="0px" y="0px" viewBox="0 0 581.6 142.4" xml:space="preserve">
<g>
	<g>
		<g>
			<g>
				<path fill="#FFFFFF" d="M105,19.1h13.5l-6.4,36.2h41.8l6.4-36.2h13.5L158,108.4h-13.5l7.1-40.2h-41.7l-7.1,40.2H89.3L105,19.1z"
					/>
				<path fill="#FFFFFF" d="M177.9,104.6c-3.1-3.4-4.7-8.2-4.7-14.4c0-2,0.3-4.8,1-8.5l6.1-36.1h13L187.5,80c-0.5,3-0.8,5.4-0.8,7.1
					c0,7.6,3.2,11.3,9.7,11.3c5.2,0,9.5-2.2,13-6.5l8.2-46.4h13l-11.1,62.9h-12l0.5-6.1c-4.9,4.9-10.4,7.4-16.3,7.4
					C185.6,109.7,181.1,108,177.9,104.6z"/>
				<path fill="#FFFFFF" d="M241.7,45.5h11.1v5.6c2.8-2.5,5.6-4.2,8.5-5.3c2.8-1.1,5.9-1.6,9.2-1.6c6.5,0,11.2,1.8,14.3,5.4
					c3.1,3.6,4.6,8.6,4.6,15.2c0,1.6-0.4,5-1.2,10.1c-0.8,5.1-2.7,16.3-5.8,33.5h-13c2.6-14.7,4.3-25.1,5.3-31.1
					c1-6,1.5-9.6,1.5-10.8c0-3.8-0.8-6.6-2.4-8.4c-1.6-1.8-4.2-2.7-7.8-2.7c-6,0-10.7,2.4-14.3,7.3l-8,45.7h-13L241.7,45.5z"/>
				<path fill="#FFFFFF" d="M362,12.8l-16.8,95.6h-12l0.8-7.5c-5.4,5.9-11.6,8.8-18.5,8.8c-4.3,0-8.1-1.1-11.3-3.4
					c-3.2-2.3-5.7-5.4-7.5-9.4c-1.7-4-2.6-8.4-2.6-13.3c0-6.6,1.4-13,4.1-19c2.7-6,6.5-10.9,11.5-14.7c4.9-3.7,10.5-5.6,16.6-5.6
					c7.1,0,12.3,2.8,15.8,8.4l7-39.9H362z M329.6,95.2c2.9-2.3,5.3-5.4,7-9.3c1.7-4,2.6-8.4,2.6-13.5c0-5.5-1.1-9.7-3.3-12.6
					c-2.2-2.9-5.3-4.3-9.2-4.3c-3.6,0-6.8,1.2-9.8,3.6c-2.9,2.4-5.2,5.7-6.9,9.8c-1.7,4.1-2.5,8.5-2.5,13.3c0,4.9,1,8.9,3.1,11.9
					c2,3,5.1,4.5,9.3,4.5C323.5,98.6,326.7,97.4,329.6,95.2z"/>
				<path fill="#FFFFFF" d="M364.5,102.1c-4.5-5.1-6.8-11.6-6.8-19.6c0-6.6,1.5-12.9,4.4-18.7c2.9-5.9,7-10.6,12.3-14.2
					c5.3-3.6,11.3-5.4,18-5.4c6.2,0,11,1.5,14.3,4.6c3.4,3.1,5,7.1,5,12.2c0,6.1-2.5,11.2-7.5,15.1c-5,4-12.4,5.9-22.1,5.9
					c-4,0-7.6-0.3-10.7-1c0.3,11.6,5.5,17.5,15.7,17.5c3,0,6.1-0.4,9.2-1.1c3.2-0.7,6.1-1.8,8.9-3.1l-0.9,10.5
					c-5.7,3.2-12.5,4.8-20.3,4.8C375.5,109.7,369,107.1,364.5,102.1z M395.8,70.1c3-2.2,4.5-4.8,4.5-7.9c0-2.4-0.9-4.1-2.6-5.2
					c-1.7-1.1-3.8-1.6-6.3-1.6c-4.2,0-7.9,1.5-11.1,4.5c-3.2,3-5.7,7.2-7.5,12.4c2.4,0.7,5,1,7.9,1
					C387.7,73.5,392.8,72.3,395.8,70.1z"/>
				<path fill="#FFFFFF" d="M440.8,102.7c-4-4.7-5.9-10.8-5.9-18.5c0-6.7,1.4-13.2,4.3-19.3c2.9-6.2,6.9-11.1,12.1-14.9
					c5.2-3.8,11-5.7,17.5-5.7c6.7,0,11.6,2.4,14.5,7.1l2.3-5.9H497l-7.5,44c-0.3,1.8-0.5,3.4-0.5,5c0,1.9,0.4,3.1,1.3,3.8
					c0.8,0.6,2.5,1,4.8,1l-3.3,10.5c-3.5,0-6.2-0.2-8.1-0.5c-1.9-0.3-3.5-1.1-4.8-2.4c-1.3-1.2-2.3-3.1-3.1-5.7
					c-5.3,5.7-11.7,8.5-19.3,8.5C450,109.7,444.7,107.3,440.8,102.7z M470.8,95.1c2.9-2.3,5.2-5.4,6.8-9.4c1.6-4,2.4-8.4,2.4-13.3
					c0-5.6-1.1-9.8-3.3-12.7c-2.2-2.8-5.3-4.3-9.2-4.3c-3.6,0-6.8,1.2-9.8,3.6c-2.9,2.4-5.2,5.7-6.9,9.7c-1.7,4-2.5,8.4-2.5,13.1
					c0,5,1,9.1,3.1,12.1c2.1,3.1,5.2,4.6,9.4,4.6C464.5,98.6,467.8,97.4,470.8,95.1z"/>
				<path fill="#FFFFFF" d="M502.2,45.5h13.3l6.6,47.9l23.5-47.9h13.4l-33.4,62.9h-12.2L502.2,45.5z"/>
				<path fill="#FFFFFF" d="M557,106.5c-2-2.1-3.1-4.9-3.1-8.3c0-1.2,0.2-3,0.6-5.5c0.4-2.5,0.7-4.1,0.8-5l13.3-75h13L568.2,89
					c-0.4,2.7-0.6,4.5-0.6,5.5c0,2,0.5,3.2,1.5,3.8c1,0.6,2.7,0.9,5.3,0.9l-3.3,10.5h-4.6C562.2,109.7,559.1,108.6,557,106.5z"/>
			</g>
		</g>
	</g>
	<g>
		<path fill-rule="evenodd" fill="#ECB340" d="M66.4,88.2H13.3c-8.6,0-14.4-7.3-13-16.4L6,34c1.4-9.1,9.5-16.4,18.1-16.4h53.1
			c8.6,0,14.4,7.3,13,16.4l-5.8,37.9C83.1,80.9,75,88.2,66.4,88.2z"/>
		<g>
			<g>
				<path fill="#25384D" d="M61.8,68.4c1.2-6.5-3.6-8.1-6.3-11.6c-2.6-3.4-3.5-10-9.8-10c-6.3,0-9.8,6.6-13.7,10
					c-4,3.5-9.5,5.2-10.7,11.6c-0.9,4.9,2.4,8.9,7.4,9.1c0.1,0,0.2,0,0.4,0c0,0,0,0,0,0c0,0,0,0,0,0c4,0,7.7-1.8,11-1.8
					c3.3,0.1,6.3,1.8,10.3,1.8c0,0,0,0,0,0c0,0,0,0,0,0c0.1,0,0.3,0,0.4,0C56,77.3,60.8,73.3,61.8,68.4z"/>
				<g>
					<g>
						<path fill="#25384D" d="M30.2,47.5c1.1,4-0.7,8.4-4,9.9c-3.3,1.4-6.9-0.7-8.1-4.7c-1.1-4,0.7-8.4,4-9.9
							C25.5,41.4,29.1,43.5,30.2,47.5z"/>
						<path fill="#25384D" d="M60.7,47.4c-2.6,4-2.5,8.4,0.3,9.9c2.8,1.4,7.2-0.7,9.8-4.7c2.6-4,2.5-8.4-0.3-9.9
							C67.7,41.3,63.3,43.4,60.7,47.4z"/>
					</g>
					<g>
						<path fill="#25384D" d="M45.2,35.6c0.4,4.9-2.3,9.6-6,10.6c-3.7,0.9-7-2.2-7.4-7.1c-0.4-4.9,2.3-9.6,6-10.6
							C41.5,27.5,44.8,30.7,45.2,35.6z"/>
						<path fill="#25384D" d="M50.4,35.6c-2.2,4.9-1.3,9.6,2,10.6c3.4,0.9,7.9-2.3,10.1-7.1c2.2-4.9,1.3-9.6-2-10.6
							C57.2,27.5,52.6,30.7,50.4,35.6z"/>
					</g>
				</g>
			</g>
		</g>
	</g>
</g>
<g>
</g>
<g>
</g>
<g>
</g>
<g>
</g>
<g>
</g>
<g>
</g>
</svg>
